{"title":"The Last Airbender-AC3-XviD-BRRip[Eng]2010 2Lions-Team","uid":5858206,"size":1464395829,"categoryP":"video","categoryS":"movies","magnet":"?xt=urn:btih:6c2f83296832682a6a90e2cc77bad34a543179da&amp;dn=The+Last+Airbender-AC3-XviD-BRRip%5BEng%5D2010+2Lions-Team&amp;tr=udp%3A%2F%2Ftracker.openbittorrent.com%3A80&amp;tr=udp%3A%2F%2Fopen.demonii.com%3A1337&amp;tr=udp%3A%2F%2Ftracker.coppersurfer.tk%3A6969&amp;tr=udp%3A%2F%2Fexodus.desync.com%3A6969","seeders":0,"leechers":1,"uploader":"FatFreddy31","files":-1,"time":1285875226,"description":"Last Airbender, The (2010) Alternatieve titel: Airbender \n\nThe story follows the adventures of Aang, a young successor to a long line of Avatars, who must put his childhood ways aside and stop the Fire Nation from enslaving the Water, Earth and Air nations.\n &lt;a href=&quot;\nhttp://www.imdb.com/title/tt0938283/&quot; rel=&quot;nofollow&quot; target=&quot;_NEW&quot;&gt;\nhttp://www.imdb.com/title/tt0938283/&lt;/a&gt;\n\nSubtitles (srt) : Dutch, English, French and Spanish.\n\nCovers included.\n\nIn een mystieke wereld leven verschillende stammen die ÃƒÂ©ÃƒÂ©n van de vier elementen beheersen: water, aarde, lucht en vuur. De enige persoon die alle vier elementen beheerst is de Avatar. Tijdens een aanval van de Vuurnatie verdwijnt de Avatar plotseling. 100 jaar later ontdekken twee kinderen (Katara en Sokka van de Waterstam) een jongen genaamd Aang die zit vastgevroren in een rots. Hij blijkt de nieuwe Avatar te zijn en hij moet het evenwicht in de wereld weer zien te herstellen. Maar dat is niet geheel zonder gevaar...\n &lt;a href=&quot;\nhttp://www.moviemeter.nl/film/58046&quot; rel=&quot;nofollow&quot; target=&quot;_NEW&quot;&gt;\nhttp://www.moviemeter.nl/film/58046&lt;/a&gt;\n\nOndertitels (srt) : Engels, Frans, Nederlands en Spaans.\n\nHoesjes bijgevoegd.\n\nGeneral\nComplete name                    : The Last Airbender-AC3-XviD-BRRip[Eng]2010 2Lions-Team\\The Last Airbender-AC3-XviD-BRRip[Eng]2010 2Lions-Team.avi\nFormat                           : AVI\nFormat/Info                      : Audio Video Interleave\nFile size                        : 1.36 GiB\nDuration                         : 1h 43mn\nOverall bit rate                 : 1 890 Kbps\nWriting application              : VirtualDubMod 1.5.4.1 (build 2178/release)\nWriting library                  : VirtualDubMod build 2178/release\n\nVideo\nID                               : 0\nFormat                           : MPEG-4 Visual\nFormat profile                   : Simple@L3\nFormat settings, BVOP            : No\nFormat settings, QPel            : No\nFormat settings, GMC             : No warppoints\nFormat settings, Matrix          : Default (H.263)\nCodec ID                         : XVID\nCodec ID/Hint                    : XviD\nDuration                         : 1h 43mn\nBit rate                         : 1 497 Kbps\nWidth                            : 720 pixels\nHeight                           : 304 pixels\nDisplay aspect ratio             : 2.35:1\nFrame rate                       : 23.976 fps\nColor space                      : YUV\nChroma subsampling               : 4:2:0\nBit depth                        : 8 bits\nScan type                        : Progressive\nBits/(Pixel*Frame)               : 0.285\nStream size                      : 1.08 GiB (79%)\nWriting library                  : XviD 1.1.2 (UTC 2006-11-01)\n\nAudio\nID                               : 1\nFormat                           : AC-3\nFormat/Info                      : Audio Coding 3\nMode extension                   : CM (complete main)\nCodec ID                         : 2000\nDuration                         : 1h 43mn\nBit rate mode                    : Constant\nBit rate                         : 384 Kbps\nChannel(s)                       : 6 channels\nChannel positions                : Front: L C R, Side: L R, LFE\nSampling rate                    : 48.0 KHz\nBit depth                        : 16 bits\nStream size                      : 284 MiB (20%)\nAlignment                        : Split accross interleaves\nInterleave, duration             : 42 ms (1.00 video frame)\nInterleave, preload duration     : 500 ms\n\nMany Thanks to Simply ReleaseS for the source ,and subs.Excellent job again!!!!!\n\nBrought to you by \n2Lions Team\n\nmeer zien??\n                   \nKom dan eens kijken op ons NIEUWE forum \n            &lt;a href=&quot;\nhttp://www.2lions-site.nl/&quot; rel=&quot;nofollow&quot; target=&quot;_NEW&quot;&gt;\nhttp://www.2lions-site.nl/&lt;/a&gt;\n\n2Lions the site to be for all your Dutch MOVIES and more\n\n******************************************\n\nDON T HIT AND RUN Niet gelijk afhaken als de FILM binnen is blijf seeden. \n\nDon`t quit after you finished the download, but keep seeding\n\nThere are fake torrents from uploaders who use our team name.\nThose are not ours, or members from our team.\nWe 2Lions-Team are not responsible for the fake posts on our name\n\nWij 2Lions-Team zijn niet verantwoordelijk voor die zieke FAKE posten die op onze naam worden gedaan\n\nPlease check our site !!!\n\nto the fakers , get a life !!!","torrent":{"xt":"urn:btih:6c2f83296832682a6a90e2cc77bad34a543179da","amp;dn":"The+Last+Airbender-AC3-XviD-BRRip%5BEng%5D2010+2Lions-Team","amp;tr":["udp%3A%2F%2Ftracker.openbittorrent.com%3A80","udp%3A%2F%2Fopen.demonii.com%3A1337","udp%3A%2F%2Ftracker.coppersurfer.tk%3A6969","udp%3A%2F%2Fexodus.desync.com%3A6969"],"infoHash":"6c2f83296832682a6a90e2cc77bad34a543179da","infoHashBuffer":{"type":"Buffer","data":[108,47,131,41,104,50,104,42,106,144,226,204,119,186,211,74,84,49,121,218]},"announce":[],"urlList":[]}}